<svg xmlns="http://www.w3.org/2000/svg" viewBox="0 0 200 200"><defs><style>.cls-1,.cls-2{fill:#347eb0;stroke:#347eb0;}.cls-1,.cls-2,.cls-4{stroke-miterlimit:10;}.cls-1{fill-rule:evenodd;}.cls-3{fill:#d37724;}.cls-4{fill:none;stroke:#d37724;stroke-width:3px;}</style></defs><title>Artboard 2</title><g id="Layer_2" data-name="Layer 2"><path class="cls-1" d="M45.64,82l-.51,4-4.56-1A18.46,18.46,0,0,0,35,84c-13.18,0-23.32,9.58-23.83,22.2S21.3,129.42,34,129.42a28.77,28.77,0,0,0,9.12-1.51,44.53,44.53,0,0,0,1,8.07,33.81,33.81,0,0,1-10.64,1.51C16.23,137,2.54,122.86,3.05,106.22A31.1,31.1,0,0,1,35,75.94a11.15,11.15,0,0,1,4.06.51C44.11,60.3,59.33,49.71,76.56,50.22c4.06,0,7.61,1,11.66,2A43.16,43.16,0,0,1,128.78,27c21.3.5,39,17.15,42.6,39.35,15.71,3,26.87,18.66,26.36,36.83-.51,10.09-4.56,20.18-11.66,26.74a32.13,32.13,0,0,1-21.8,8.57,23.08,23.08,0,0,1-8.12-1.51c.51-2.52,1-5.05,1.52-8.07a16.28,16.28,0,0,0,7.1,1.51,21.94,21.94,0,0,0,15.72-6.56,28.39,28.39,0,0,0,9.13-21.19c.5-15.14-9.64-27.75-22.31-28.75l-3-.51-.51-3c-2-19.67-17.24-34.8-35.49-35.31h-1c-14.19,0-27.37,9.08-33.46,23.71l-1.52,4-4.06-1.52a24.22,24.22,0,0,0-12.16-3A30.41,30.41,0,0,0,45.64,82Z"/><rect class="cls-2" x="50.75" y="122.14" width="10.17" height="30.52"/><rect class="cls-2" x="67.03" y="130.28" width="10.17" height="22.38"/><rect class="cls-2" x="85.34" y="113" width="10.17" height="39.66"/><rect class="cls-2" x="101.62" y="101.79" width="10.17" height="50.87"/><path class="cls-3" d="M126.38,139.92a1.77,1.77,0,0,0-1.7-1.28H121a1.72,1.72,0,0,0-1.73,1.72l0,.3A15.77,15.77,0,0,0,131.62,153V145.7A8.57,8.57,0,0,1,126.38,139.92Z"/><path class="cls-3" d="M138.49,123V112.16a6.26,6.26,0,0,1,1.76,2.53,1.74,1.74,0,0,0,1.64,1.15h3.77a1.73,1.73,0,0,0,1.74-1.72l-.06-.42a13.49,13.49,0,0,0-8.85-9.48v-3.58a2,2,0,0,0-4,0v50.55a2,2,0,0,0,2,1.95,1.86,1.86,0,0,0,.34-.06v0A15.34,15.34,0,0,0,138.49,123Zm0,22.25V130.53a8.26,8.26,0,0,1,0,14.74Z"/><path class="cls-3" d="M121.46,116.57a13,13,0,0,0,10.16,12.62V121.7a5.83,5.83,0,0,1,0-10.26v-7.51A13,13,0,0,0,121.46,116.57Z"/><polyline class="cls-4" points="54.57 105.24 71.43 111.5 105.43 76.5 137.43 71.5"/></g></svg>